<svg width="32" height="13" viewBox="0 0 32 13" fill="none" xmlns="http://www.w3.org/2000/svg">
<g id="Frame" clip-path="url(#clip0_0_241)">
<path id="Vector" d="M31.9997 9.02521C31.8838 9.19188 31.6657 9.31687 31.3864 9.31687C31.0183 9.31687 30.8139 9.07394 30.7797 8.70584C30.7797 8.67812 30.766 8.44896 30.766 8.37251C30.6912 8.85855 30.2005 9.30999 29.628 9.30999C29.0896 9.30999 28.6603 9.03227 28.6603 8.44913C28.6603 7.70604 29.4303 7.53249 30.2414 7.37977L30.7593 7.28249V6.8865C30.7593 6.37962 30.5276 5.94902 29.9688 5.94902C29.4644 5.94902 29.2737 6.21296 29.2737 6.51839C29.2737 6.73378 29.3963 6.8865 29.5871 6.8865C29.6178 6.88626 29.648 6.87915 29.6756 6.86566C29.6419 7.07399 29.4849 7.17816 29.287 7.17816C29.0077 7.17816 28.7895 6.99066 28.7895 6.67128C28.7895 6.21985 29.2666 5.81714 29.9687 5.81714C30.8546 5.81714 31.3862 6.16424 31.3862 6.99066C31.3862 7.60859 31.3657 8.06691 31.3657 8.49062C31.3657 8.8725 31.5089 9.06688 31.7951 9.06688C31.8669 9.06749 31.9375 9.04833 31.9996 9.01144L31.9997 9.02521ZM30.3027 7.50442C29.628 7.63648 29.3009 7.88647 29.3009 8.3794C29.3009 8.83772 29.553 9.00438 29.8801 9.00438C30.3095 9.00438 30.7321 8.63645 30.7456 7.99063L30.7593 7.4142L30.3027 7.50442Z" fill="#3C2415"/>
<path id="Vector_2" d="M24.3122 9.02521C24.1965 9.19188 23.9783 9.31687 23.6989 9.31687C23.3308 9.31687 23.1264 9.07394 23.0924 8.70584C23.0924 8.67812 23.0787 8.44896 23.0787 8.37251C23.0037 8.85855 22.513 9.30999 21.9407 9.30999C21.4021 9.30999 20.9728 9.03227 20.9728 8.44913C20.9728 7.70604 21.743 7.53249 22.5539 7.37977L23.072 7.28249V6.8865C23.072 6.37962 22.8401 5.94902 22.2813 5.94902C21.7771 5.94902 21.5862 6.21296 21.5862 6.51839C21.5862 6.73378 21.7088 6.8865 21.8998 6.8865C21.9304 6.88626 21.9607 6.87915 21.9883 6.86566C21.9545 7.07399 21.7975 7.17816 21.5997 7.17816C21.3202 7.17816 21.1022 6.99066 21.1022 6.67128C21.1022 6.21985 21.5792 5.81714 22.2812 5.81714C23.1671 5.81714 23.6987 6.16424 23.6987 6.99066C23.6987 7.60859 23.6782 8.06691 23.6782 8.49062C23.6782 8.8725 23.8214 9.06688 24.1076 9.06688C24.1794 9.06751 24.2501 9.04836 24.3121 9.01144L24.3122 9.02521ZM22.6152 7.50442C21.9407 7.63648 21.6135 7.88647 21.6135 8.3794C21.6135 8.83772 21.8656 9.00438 22.1928 9.00438C22.6221 9.00438 23.0446 8.63645 23.0583 7.99063L23.072 7.4142L22.6152 7.50442Z" fill="#3C2415"/>
<path id="Vector_3" d="M17.7429 10.0669C17.7429 10.5252 17.8042 10.671 18.1315 10.8099V10.8237H16.7546V10.8099C17.0817 10.671 17.1432 10.5252 17.1432 10.0669V6.64339C17.1432 6.2474 17.0479 6.03924 16.7208 5.90047V5.88652H17.7431V6.824C17.8793 6.28923 18.3358 5.81714 18.9766 5.81714C19.8149 5.81714 20.4963 6.4559 20.4963 7.54609C20.4963 8.62939 19.8149 9.33082 18.9766 9.33082C18.3358 9.33082 17.8793 8.85855 17.7431 8.32396L17.7429 10.0669ZM17.7429 7.3171V7.82397C17.7429 8.58153 18.288 9.03227 18.7787 9.03227C19.4262 9.03227 19.835 8.4419 19.835 7.54609C19.835 6.65734 19.4262 6.11568 18.7787 6.11568C18.288 6.11568 17.7429 6.56006 17.7429 7.3171Z" fill="#3C2415"/>
<path id="Vector_4" d="M12.3996 6.51839C12.3996 6.3309 12.2633 6.19902 12.0316 6.19902C11.5683 6.19902 11.1661 6.8865 11.1661 7.69898V8.50439C11.1661 8.96272 11.3706 9.12938 11.7591 9.24749V9.26126H10.178V9.24749C10.5051 9.10855 10.5666 8.96272 10.5666 8.50439V6.64339C10.5666 6.2474 10.4711 6.03924 10.1442 5.90047V5.88652H11.1665V7.05316C11.3163 6.40046 11.6709 5.81714 12.2773 5.81714C12.6386 5.81714 12.9111 6.03924 12.9111 6.37256C12.9111 6.75461 12.6386 6.92128 12.4211 6.92128C12.3197 6.92128 12.2303 6.87961 12.1962 6.83089C12.3179 6.78233 12.3996 6.67128 12.3996 6.51839Z" fill="#3C2415"/>
<path id="Vector_5" d="M10.0278 9.02521C9.91208 9.19188 9.69393 9.31687 9.41461 9.31687C9.04659 9.31687 8.84213 9.07394 8.80799 8.70584C8.80799 8.67812 8.79431 8.44896 8.79431 8.37251C8.71945 8.85855 8.22875 9.30999 7.65626 9.30999C7.1179 9.30999 6.68854 9.03227 6.68854 8.44913C6.68854 7.70604 7.45856 7.53249 8.26964 7.37977L8.78755 7.28249V6.8865C8.78755 6.37962 8.55588 5.94902 7.99708 5.94902C7.49269 5.94902 7.30192 6.21296 7.30192 6.51839C7.30192 6.73378 7.42459 6.8865 7.61537 6.8865C7.64602 6.88626 7.67625 6.87915 7.70391 6.86566C7.67011 7.07399 7.51314 7.17816 7.31527 7.17816C7.03595 7.17816 6.8178 6.99066 6.8178 6.67128C6.8178 6.21985 7.29482 5.81714 7.99691 5.81714C8.88285 5.81714 9.41444 6.16424 9.41444 6.99066C9.41444 7.60859 9.394 8.06691 9.394 8.49062C9.394 8.8725 9.53712 9.06688 9.82336 9.06688C9.89512 9.06752 9.96571 9.04836 10.0277 9.01144L10.0278 9.02521ZM8.33098 7.50442C7.65626 7.63648 7.32862 7.88733 7.32862 8.3794C7.32862 8.83772 7.58073 9.00438 7.90786 9.00438C8.33723 9.00438 8.75983 8.63645 8.77335 7.99063L8.78704 7.4142L8.33098 7.50442Z" fill="#3C2415"/>
<path id="Vector_6" d="M14.1932 8.50423C14.1932 8.96255 14.2545 9.10838 14.5818 9.24732V9.2611H13.2052V9.24732C13.5323 9.10838 13.5938 8.96255 13.5938 8.50423V6.64323C13.5938 6.24723 13.4984 6.03908 13.1714 5.90031V5.88636H14.1937L14.1932 8.50423ZM13.8524 4.26881C14.0977 4.26881 14.2817 4.4563 14.2817 4.69924C14.2817 4.94217 14.0977 5.12967 13.8524 5.12967C13.607 5.12967 13.423 4.94217 13.423 4.69924C13.423 4.4563 13.607 4.26846 13.8524 4.26846V4.26881Z" fill="#3C2415"/>
<path id="Vector_7" d="M27.2098 4.81656C27.2098 4.42056 27.1145 4.21241 26.7873 4.07347V4.05969H27.8098V8.50379C27.8098 8.89978 27.9051 9.10794 28.2322 9.24688V9.26066H27.2099V8.32335C27.0738 8.85795 26.617 9.33021 25.9764 9.33021C25.1381 9.33021 24.4567 8.69129 24.4567 7.60109C24.4567 6.51779 25.1381 5.81653 25.9764 5.81653C26.617 5.81653 27.0738 6.28863 27.2099 6.82339L27.2098 4.81656ZM27.2098 7.82957V7.32269C27.2098 6.56514 26.6647 6.11439 26.174 6.11439C25.5264 6.11439 25.1175 6.7046 25.1175 7.6004C25.1175 8.48933 25.5264 9.03098 26.174 9.03098C26.6647 9.03167 27.2098 8.58712 27.2098 7.83025V7.82957Z" fill="#3C2415"/>
<path id="Vector_8" d="M1.11732 0C1.21228 0.0106746 1.26263 0.0669748 1.26838 0.1689L1.26939 0.186118C1.2757 0.296996 1.2356 0.485983 1.14908 0.753079C0.987768 1.26225 0.831128 1.6404 0.679163 1.88752C0.580369 2.05613 0.443387 2.26997 0.268216 2.52903C0.249854 2.57494 0.232562 2.76433 0.21634 3.0972C0.217354 3.09926 0.208567 3.10064 0.189811 3.10185C0.211665 3.08222 0.279255 2.96399 0.392581 2.74717C0.592873 2.47445 0.728053 2.33608 0.798121 2.33207H0.80995C0.862332 2.32897 0.894437 2.3591 0.905759 2.42211C0.908011 2.46056 0.826002 2.57357 0.659731 2.76112C0.566457 2.90712 0.521115 3.00233 0.523706 3.04675C0.534971 3.13616 0.627682 3.26816 0.801839 3.44275C0.889819 3.50748 1.0081 3.53555 1.15669 3.52694C1.5406 3.50456 1.83456 3.24825 2.03857 2.75802C2.1012 2.56519 2.14795 2.46762 2.17882 2.46533L2.21261 2.45586C2.27699 2.47032 2.31045 2.50183 2.314 2.55021L2.31518 2.57293C2.27732 2.65837 2.24536 2.74639 2.21954 2.83636C2.19183 2.92612 2.12582 3.04176 2.0215 3.18328C1.94062 3.37003 1.77553 3.51621 1.52624 3.6218C1.41365 3.66836 1.29448 3.69626 1.17325 3.70445L1.10802 3.70824C0.806007 3.72557 0.56319 3.57319 0.37957 3.25112C0.371122 3.2444 0.370953 3.24096 0.37957 3.24044C0.319866 3.32791 0.287253 3.41072 0.281734 3.48889C0.256387 3.62192 0.232844 3.72522 0.211102 3.7988C0.198981 3.81262 0.184283 3.82385 0.167864 3.83183C0.151445 3.83981 0.133632 3.84438 0.115462 3.84528C0.0580107 3.8485 0.0237088 3.81205 0.0125565 3.73595L0.00934589 3.68C0.00802218 3.66836 0.00941141 3.65656 0.0134011 3.64556C0.0149219 3.6738 0.0118804 3.68809 0.00393856 3.68861L0.0110357 3.60459L0.00495237 3.49422C0.0154279 3.44148 0.0204121 3.38775 0.0198223 3.33393L0.0188085 3.31672C0.0158796 3.26621 0.0106414 3.20836 0.0030939 3.14317C0.00123517 3.10873 0.0108666 3.03401 0.0324954 2.92141C0.0355369 2.83406 0.0355369 2.75871 0.0324954 2.69535H0.0384096C0.0409443 2.74166 0.0402684 2.76422 0.036382 2.76525C0.0289471 2.63428 0.0464639 2.47744 0.088933 2.2947C0.121535 2.10214 0.164063 1.91145 0.21634 1.72344C0.271962 1.45825 0.349633 1.19837 0.448512 0.9466C0.51261 0.778101 0.630892 0.556803 0.80336 0.282706C0.918939 0.0996298 1.02359 0.00539471 1.11732 0ZM0.33344 2.09877C0.336369 2.09659 0.375515 2.03346 0.450878 1.90938C0.450878 1.90227 0.529733 1.75403 0.687443 1.46466C0.947327 0.836352 1.07237 0.434618 1.06257 0.259462C1.06169 0.249719 1.05964 0.240122 1.05648 0.230882C1.05547 0.230882 1.02168 0.294011 0.955099 0.420271C0.761116 0.716865 0.648973 0.931334 0.61867 1.06368C0.522016 1.30793 0.428123 1.64567 0.336989 2.07691L0.329216 2.12443C0.333271 2.13166 0.334623 2.12288 0.33344 2.09877Z" fill="#3C2415"/>
<path id="Vector_9" d="M2.45032 2.38545C2.60983 2.37639 2.71764 2.43033 2.77374 2.5473C2.79325 2.5896 2.80471 2.63528 2.80753 2.68193C2.81019 2.74476 2.80566 2.80768 2.79402 2.86943C2.79402 2.88148 2.80449 2.88665 2.82325 2.88665L2.9123 2.88148C3.2222 2.86358 3.55559 2.69858 3.91246 2.38649C3.96113 2.35125 4.00275 2.3326 4.03733 2.33053L4.05812 2.3295C4.09777 2.3474 4.11872 2.37547 4.12098 2.41369C4.11872 2.46442 4.0366 2.55017 3.87461 2.67092C3.54691 2.92056 3.19111 3.05652 2.8072 3.07879C2.78638 3.07643 2.76544 3.07556 2.74451 3.07621C2.72468 3.07747 2.69308 3.11678 2.64971 3.19415C2.53177 3.35668 2.39557 3.44276 2.24113 3.4524L2.18773 3.4555C2.05255 3.46331 1.95517 3.39054 1.89557 3.23719C1.88873 3.20645 1.88449 3.17517 1.8829 3.1437L1.88121 3.11357C1.86702 2.85944 1.98463 2.6366 2.23403 2.44503C2.30248 2.41334 2.37553 2.39322 2.45032 2.38545ZM2.06303 3.10444C2.06787 3.19225 2.10381 3.24838 2.17084 3.27283C2.18663 3.27883 2.20359 3.28095 2.22035 3.27903C2.31936 3.27329 2.41512 3.19644 2.5076 3.04849L2.50963 3.03007C2.50963 3.02714 2.46299 3.00545 2.3704 2.96533C2.28332 2.91678 2.22091 2.83896 2.18317 2.73186L2.19399 2.73737H2.18655C2.1585 2.75218 2.11969 2.83941 2.07013 2.99907C2.06979 3.0024 2.06742 3.03753 2.06303 3.10444ZM2.38611 2.70036C2.38881 2.74879 2.43252 2.79379 2.51723 2.83534C2.53784 2.84779 2.56095 2.85533 2.58482 2.85738H2.59057C2.59361 2.85738 2.6002 2.80573 2.61034 2.70242C2.60527 2.61272 2.56827 2.56968 2.49899 2.57381C2.4194 2.58655 2.38222 2.62873 2.38611 2.70036Z" fill="#3C2415"/>
<path id="Vector_10" d="M4.45101 2.2212C4.63157 2.20843 4.80985 2.2684 4.94746 2.3882L4.97601 2.39096C4.98176 2.39096 5.05498 2.35894 5.19568 2.29489C5.317 2.26252 5.48598 2.23382 5.70261 2.2088C5.81109 2.21282 5.86741 2.24852 5.87158 2.31589C5.87411 2.36341 5.84657 2.39371 5.78878 2.40714C5.73437 2.41047 5.66549 2.41248 5.58213 2.41317C5.38831 2.42378 5.2004 2.48484 5.03634 2.59051C5.03037 2.59051 5.02834 2.66902 5.03025 2.82604C4.97021 3.15833 4.84269 3.33021 4.64769 3.34169C4.48108 3.32907 4.39389 3.25268 4.38612 3.11253C4.38004 3.00246 4.43191 2.87298 4.54175 2.72411L4.74114 2.53644L4.73995 2.51527C4.73894 2.49805 4.7043 2.46981 4.6357 2.43331C4.58833 2.41189 4.53674 2.40193 4.48497 2.40422H4.47906C4.32968 2.41282 4.23038 2.48278 4.18115 2.61409C4.1775 2.63377 4.17507 2.65367 4.17389 2.67367C4.21827 2.97072 4.25122 3.31127 4.27274 3.69533C4.29471 4.08935 4.25802 4.48448 4.16392 4.86731C4.09712 5.09687 4.02119 5.23174 3.93614 5.27191C3.86089 5.32792 3.78913 5.35788 3.72086 5.36178C3.67828 5.36442 3.63221 5.33119 3.58264 5.26209C3.53961 5.20183 3.51348 5.08901 3.50424 4.92361C3.48824 4.63665 3.55854 4.17936 3.71512 3.55174C3.80299 3.20464 3.85238 2.98575 3.86331 2.89508C3.91964 2.71877 3.94493 2.57719 3.93918 2.47033C3.93715 2.43194 3.98176 2.39853 4.07436 2.36995C4.08236 2.36995 4.13029 2.33988 4.21816 2.27974C4.29156 2.24575 4.37051 2.2259 4.45101 2.2212ZM3.70937 4.91689C3.72661 5.08183 3.74706 5.16361 3.77071 5.16224C3.79443 5.15568 3.81655 5.14417 3.83566 5.12843C3.85477 5.11269 3.87046 5.09307 3.88173 5.07081C3.93805 4.96521 3.99263 4.73336 4.04547 4.37524L4.0725 4.1113C4.07368 4.13437 4.07047 4.14573 4.06253 4.14677C4.0772 3.98462 4.08008 3.82159 4.07115 3.659L4.06878 3.61665C4.05234 3.3243 4.03352 3.14783 4.01235 3.08722C4.01629 3.08722 3.98999 3.22938 3.93344 3.51369C3.84117 3.85287 3.77871 4.15704 3.74604 4.4262C3.71523 4.58777 3.70292 4.75243 3.70937 4.91689ZM4.61373 3.0812L4.61542 3.1115C4.61694 3.1387 4.6286 3.15179 4.6504 3.15058C4.70005 3.12288 4.73906 3.07889 4.76108 3.02576C4.80399 2.92108 4.82326 2.83447 4.81954 2.76578C4.81954 2.76285 4.81954 2.76078 4.81954 2.75975C4.76006 2.78144 4.70278 2.83993 4.64769 2.93519C4.62398 2.97998 4.61227 3.03033 4.61373 3.0812Z" fill="#3C2415"/>
<path id="Vector_11" d="M5.23734 4.81656C5.23734 4.42056 5.14203 4.21241 4.8149 4.07347V4.05969H5.83703V8.50379C5.83703 8.89978 5.9325 9.10794 6.25947 9.24688V9.26066H5.23717V8.32335C5.10097 8.85795 4.64423 9.33021 4.00365 9.33021C3.16536 9.33021 2.48389 8.69129 2.48389 7.60109C2.48389 6.51779 3.16536 5.81653 4.00365 5.81653C4.64423 5.81653 5.10097 6.28863 5.23717 6.82339L5.23734 4.81656ZM5.23734 7.82957V7.32269C5.23734 6.56514 4.69222 6.11439 4.20152 6.11439C3.55401 6.11439 3.14509 6.7046 3.14509 7.6004C3.14509 8.48933 3.55401 9.03098 4.20152 9.03098C4.69307 9.03167 5.23734 8.58712 5.23734 7.83025V7.82957Z" fill="#3C2415"/>
<path id="Vector_12" d="M5.77213 3.02757C5.76237 3.02365 5.75397 3.01689 5.74796 3.00813C5.74195 2.99937 5.7386 2.98901 5.73833 2.97832C5.73327 2.8865 5.75872 2.78182 5.81471 2.66428C5.85786 2.61929 5.90033 2.51765 5.94212 2.35937L5.93958 2.31701C5.93677 2.26467 5.90382 2.23374 5.84073 2.22421H5.83026C5.78683 2.22869 5.76537 2.23403 5.76571 2.24022C5.76177 2.24022 5.70645 2.37039 5.59978 2.63071C5.55472 2.78704 5.53444 2.90452 5.53894 2.98314C5.54587 3.10676 5.59538 3.18493 5.68511 3.21971C5.70548 3.15196 5.73476 3.08732 5.77213 3.02757Z" fill="#3C2415"/>
<path id="Vector_13" d="M14.0443 2.36885C14.052 2.29749 13.9776 2.23059 13.8781 2.21943C13.7785 2.20827 13.6916 2.25707 13.6839 2.32843C13.6762 2.39979 13.7506 2.46669 13.8501 2.47785C13.9497 2.48901 14.0366 2.44021 14.0443 2.36885Z" fill="#3C2415"/>
<path id="Vector_14" d="M6.27536 3.36503C5.92052 3.36882 5.77537 3.27516 5.68834 3.21869C5.68016 3.21294 5.67164 3.2077 5.66283 3.20302C5.64974 3.19935 5.6375 3.19306 5.62682 3.18452C5.61614 3.17598 5.60724 3.16536 5.60063 3.15327C5.59402 3.14119 5.58984 3.12788 5.58834 3.11414C5.58683 3.10039 5.58803 3.08647 5.59186 3.0732C5.59968 3.04591 5.61774 3.02286 5.64212 3.00903C5.66651 2.99521 5.69525 2.99172 5.72214 2.99934C5.75007 3.0085 5.77645 3.02198 5.80037 3.03928C5.92508 3.12003 6.30409 3.36641 8.13443 2.69701C10.2709 1.91638 13.4374 2.20029 13.4693 2.20322C13.4961 2.20674 13.5206 2.22071 13.5375 2.24221C13.5544 2.26371 13.5624 2.29105 13.56 2.31848C13.5575 2.34592 13.5447 2.3713 13.5242 2.3893C13.5037 2.4073 13.4772 2.41651 13.4502 2.41499C13.419 2.41206 10.2975 2.13263 8.20472 2.89707C7.22788 3.25398 6.64052 3.36107 6.27536 3.36503Z" fill="#3C2415"/>
<path id="Vector_15" d="M16.3186 12.9857V12.9997H14.9284V12.9857C15.2555 12.8468 15.317 12.5691 15.317 12.1108V2.54026C15.317 2.08194 15.2557 1.80423 14.9284 1.66528V1.65134H16.3186V1.66528C15.9916 1.80423 15.9299 2.08194 15.9299 2.54026V12.1108C15.9299 12.57 15.9913 12.8468 16.3186 12.9857Z" fill="#3C2415"/>
<path id="Vector_16" d="M6.05643 1.80204C6.10645 1.79412 6.13816 1.78471 6.15156 1.77381C6.24168 1.73214 6.28443 1.67096 6.27981 1.59027C6.26596 1.51934 6.2338 1.4853 6.18333 1.48817C6.16225 1.48899 6.14139 1.49276 6.12132 1.49936C5.98163 1.53988 5.91404 1.60043 5.91855 1.68101C5.92226 1.7485 5.96822 1.78884 6.05643 1.80204Z" fill="#3C2415"/>
</g>
<defs>
<clipPath id="clip0_0_241">
<rect width="32" height="13" fill="white"/>
</clipPath>
</defs>
</svg>
